<?xml version="1.0" encoding="UTF-8" standalone="no"?><svg xmlns="http://www.w3.org/2000/svg" xmlns:xlink="http://www.w3.org/1999/xlink" contentScriptType="application/ecmascript" contentStyleType="text/css" height="382px" preserveAspectRatio="none" style="width:490px;height:382px;background:#FFFFFF;" version="1.1" viewBox="0 0 490 382" width="490px" zoomAndPan="magnify"><defs><filter height="300%" id="f1s2s8n4o781kt" width="300%" x="-1" y="-1"><feGaussianBlur result="blurOut" stdDeviation="2.0"/><feColorMatrix in="blurOut" result="blurOut2" type="matrix" values="0 0 0 0 0 0 0 0 0 0 0 0 0 0 0 0 0 0 .4 0"/><feOffset dx="4.0" dy="4.0" in="blurOut2" result="blurOut3"/><feBlend in="SourceGraphic" in2="blurOut3" mode="normal"/></filter></defs><g><!--MD5=[fbb5bc190b9539a565b98a2838b7fb27]
class tarjetaDebito--><rect codeLine="3" fill="#FEFECE" filter="url(#f1s2s8n4o781kt)" height="176.0469" id="tarjetaDebito" style="stroke:#A80036;stroke-width:1.5;" width="196" x="143.5" y="192"/><ellipse cx="195.75" cy="208" fill="#ADD1B2" rx="11" ry="11" style="stroke:#A80036;stroke-width:1.0;"/><path d="M198.7188,213.6406 Q198.1406,213.9375 197.5,214.0781 Q196.8594,214.2344 196.1563,214.2344 Q193.6563,214.2344 192.3281,212.5938 Q191.0156,210.9375 191.0156,207.8125 Q191.0156,204.6875 192.3281,203.0313 Q193.6563,201.375 196.1563,201.375 Q196.8594,201.375 197.5,201.5313 Q198.1563,201.6875 198.7188,201.9844 L198.7188,204.7031 Q198.0938,204.125 197.5,203.8594 Q196.9063,203.5781 196.2813,203.5781 Q194.9375,203.5781 194.25,204.6563 Q193.5625,205.7188 193.5625,207.8125 Q193.5625,209.9063 194.25,210.9844 Q194.9375,212.0469 196.2813,212.0469 Q196.9063,212.0469 197.5,211.7813 Q198.0938,211.5 198.7188,210.9219 L198.7188,213.6406 Z " fill="#000000"/><text fill="#000000" font-family="sans-serif" font-size="12" lengthAdjust="spacing" textLength="83" x="216.25" y="212.1543">tarjetaDebito</text><line style="stroke:#A80036;stroke-width:1.5;" x1="144.5" x2="338.5" y1="224" y2="224"/><rect fill="none" height="6" style="stroke:#C82930;stroke-width:1.0;" width="6" x="151.5" y="232"/><text fill="#000000" font-family="sans-serif" font-size="11" lengthAdjust="spacing" textLength="64" x="163.5" y="238.2104">saldo: float</text><ellipse cx="154.5" cy="247.8047" rx="3" ry="3" style="stroke:#038048;stroke-width:1.0;fill:none;"/><text fill="#000000" font-family="sans-serif" font-size="11" lengthAdjust="spacing" textLength="86" x="163.5" y="251.0151">nombre: String</text><ellipse cx="154.5" cy="260.6094" rx="3" ry="3" style="stroke:#038048;stroke-width:1.0;fill:none;"/><text fill="#000000" font-family="sans-serif" font-size="11" lengthAdjust="spacing" textLength="86" x="163.5" y="263.8198">numero: String</text><ellipse cx="154.5" cy="273.4141" rx="3" ry="3" style="stroke:#038048;stroke-width:1.0;fill:none;"/><text fill="#000000" font-family="sans-serif" font-size="11" lengthAdjust="spacing" textLength="108" x="163.5" y="276.6245">diaVencimiento: int</text><ellipse cx="154.5" cy="286.2188" rx="3" ry="3" style="stroke:#038048;stroke-width:1.0;fill:none;"/><text fill="#000000" font-family="sans-serif" font-size="11" lengthAdjust="spacing" textLength="116" x="163.5" y="289.4292">mesVencimiento: int</text><ellipse cx="154.5" cy="299.0234" rx="3" ry="3" style="stroke:#038048;stroke-width:1.0;fill:none;"/><text fill="#000000" font-family="sans-serif" font-size="11" lengthAdjust="spacing" textLength="126" x="163.5" y="302.2339">solicitarPago: boolean</text><line style="stroke:#A80036;stroke-width:1.5;" x1="144.5" x2="338.5" y1="308.8281" y2="308.8281"/><rect fill="#F24D5C" height="6" style="stroke:#C82930;stroke-width:1.0;" width="6" x="151.5" y="316.8281"/><text fill="#000000" font-family="sans-serif" font-size="11" lengthAdjust="spacing" textLength="170" x="163.5" y="323.0386">transaccionAprobada(): String</text><rect fill="#F24D5C" height="6" style="stroke:#C82930;stroke-width:1.0;" width="6" x="151.5" y="329.6328"/><text fill="#000000" font-family="sans-serif" font-size="11" lengthAdjust="spacing" textLength="164" x="163.5" y="335.8433">transaccionRechada(): String</text><rect fill="#F24D5C" height="6" style="stroke:#C82930;stroke-width:1.0;" width="6" x="151.5" y="342.4375"/><text fill="#000000" font-family="sans-serif" font-size="11" lengthAdjust="spacing" textLength="68" x="163.5" y="348.6479">pagar():void</text><ellipse cx="154.5" cy="358.2422" fill="#84BE84" rx="3" ry="3" style="stroke:#038048;stroke-width:1.0;"/><text fill="#000000" font-family="sans-serif" font-size="11" lengthAdjust="spacing" textLength="72" x="163.5" y="361.4526">cobrar():void</text><!--MD5=[943bb626aecaaefd531536abf69c9ef4]
class cajaDeAhorros--><rect codeLine="17" fill="#FEFECE" filter="url(#f1s2s8n4o781kt)" height="150.4375" id="cajaDeAhorros" style="stroke:#A80036;stroke-width:1.5;" width="469" x="7" y="7"/><ellipse cx="191.25" cy="23" fill="#ADD1B2" rx="11" ry="11" style="stroke:#A80036;stroke-width:1.0;"/><path d="M194.2188,28.6406 Q193.6406,28.9375 193,29.0781 Q192.3594,29.2344 191.6563,29.2344 Q189.1563,29.2344 187.8281,27.5938 Q186.5156,25.9375 186.5156,22.8125 Q186.5156,19.6875 187.8281,18.0313 Q189.1563,16.375 191.6563,16.375 Q192.3594,16.375 193,16.5313 Q193.6563,16.6875 194.2188,16.9844 L194.2188,19.7031 Q193.5938,19.125 193,18.8594 Q192.4063,18.5781 191.7813,18.5781 Q190.4375,18.5781 189.75,19.6563 Q189.0625,20.7188 189.0625,22.8125 Q189.0625,24.9063 189.75,25.9844 Q190.4375,27.0469 191.7813,27.0469 Q192.4063,27.0469 193,26.7813 Q193.5938,26.5 194.2188,25.9219 L194.2188,28.6406 Z " fill="#000000"/><text fill="#000000" font-family="sans-serif" font-size="12" lengthAdjust="spacing" textLength="92" x="211.75" y="27.1543">cajaDeAhorros</text><line style="stroke:#A80036;stroke-width:1.5;" x1="8" x2="475" y1="39" y2="39"/><rect fill="none" height="6" style="stroke:#C82930;stroke-width:1.0;" width="6" x="15" y="47"/><text fill="#000000" font-family="sans-serif" font-size="11" lengthAdjust="spacing" textLength="64" x="27" y="53.2104">saldo: float</text><ellipse cx="18" cy="62.8047" rx="3" ry="3" style="stroke:#038048;stroke-width:1.0;fill:none;"/><text fill="#000000" font-family="sans-serif" font-size="11" lengthAdjust="spacing" textLength="86" x="27" y="66.0151">nombre: String</text><ellipse cx="18" cy="75.6094" rx="3" ry="3" style="stroke:#038048;stroke-width:1.0;fill:none;"/><text fill="#000000" font-family="sans-serif" font-size="11" lengthAdjust="spacing" textLength="62" x="27" y="78.8198">cbu: String</text><ellipse cx="18" cy="88.4141" rx="3" ry="3" style="stroke:#038048;stroke-width:1.0;fill:none;"/><text fill="#000000" font-family="sans-serif" font-size="11" lengthAdjust="spacing" textLength="69" x="27" y="91.6245">alias: String</text><line style="stroke:#A80036;stroke-width:1.5;" x1="8" x2="475" y1="98.2188" y2="98.2188"/><rect fill="#F24D5C" height="6" style="stroke:#C82930;stroke-width:1.0;" width="6" x="15" y="106.2188"/><text fill="#000000" font-family="sans-serif" font-size="11" lengthAdjust="spacing" textLength="142" x="27" y="112.4292">retirar(monto:float): float</text><rect fill="#F24D5C" height="6" style="stroke:#C82930;stroke-width:1.0;" width="6" x="15" y="119.0234"/><text fill="#000000" font-family="sans-serif" font-size="11" lengthAdjust="spacing" textLength="158" x="27" y="125.2339">depositar(monto:float): void</text><ellipse cx="18" cy="134.8281" fill="#84BE84" rx="3" ry="3" style="stroke:#038048;stroke-width:1.0;"/><text fill="#000000" font-family="sans-serif" font-size="11" lengthAdjust="spacing" textLength="443" x="27" y="138.0386">recibirTransferencias(monto:float,nombre:String,CBU:String,alias:String):void</text><ellipse cx="18" cy="147.6328" fill="#84BE84" rx="3" ry="3" style="stroke:#038048;stroke-width:1.0;"/><text fill="#000000" font-family="sans-serif" font-size="11" lengthAdjust="spacing" textLength="298" x="27" y="150.8433">abrirCajaDeAhorros(nombre:String,saldoInicial:float)</text><!--MD5=[c2da67d8e349e635103a3ac9add41135]
@startuml
left to right direction

class tarjetaDebito{
  - saldo: float
  + nombre: String
  + numero: String
  + diaVencimiento: int
  + mesVencimiento: int  
  + solicitarPago: boolean
  - transaccionAprobada(): String
  - transaccionRechada(): String  
  - pagar():void
  + cobrar():void
     
}

class cajaDeAhorros{
  - saldo: float
  + nombre: String
  + cbu: String
  + alias: String
  - retirar(monto:float): float
  - depositar(monto:float): void  
  + recibirTransferencias(monto:float,nombre:String,CBU:String,alias:String):void
  + abrirCajaDeAhorros(nombre:String,saldoInicial:float)
  }
@enduml

PlantUML version 1.2021.7(Sun May 23 12:40:07 UTC 2021)
(GPL source distribution)
Java Runtime: OpenJDK Runtime Environment
JVM: OpenJDK 64-Bit Server VM
Default Encoding: UTF-8
Language: en
Country: US
--></g></svg>