<?xml version="1.0" encoding="UTF-8" standalone="no"?><svg xmlns="http://www.w3.org/2000/svg" xmlns:xlink="http://www.w3.org/1999/xlink" contentScriptType="application/ecmascript" contentStyleType="text/css" height="305px" preserveAspectRatio="none" style="width:867px;height:305px;background:#FFFFFF;" version="1.1" viewBox="0 0 867 305" width="867px" zoomAndPan="magnify"><defs><filter height="300%" id="f1m7ioos3q9yb" width="300%" x="-1" y="-1"><feGaussianBlur result="blurOut" stdDeviation="2.0"/><feColorMatrix in="blurOut" result="blurOut2" type="matrix" values="0 0 0 0 0 0 0 0 0 0 0 0 0 0 0 0 0 0 .4 0"/><feOffset dx="4.0" dy="4.0" in="blurOut2" result="blurOut3"/><feBlend in="SourceGraphic" in2="blurOut3" mode="normal"/></filter></defs><g><!--MD5=[9687af11fb11f398827099fea7d82758]
class Revista--><rect codeLine="1" fill="#FEFECE" filter="url(#f1m7ioos3q9yb)" height="112.0234" id="Revista" style="stroke:#A80036;stroke-width:1.5;" width="396" x="7" y="7"/><ellipse cx="178.25" cy="23" fill="#ADD1B2" rx="11" ry="11" style="stroke:#A80036;stroke-width:1.0;"/><path d="M181.2188,28.6406 Q180.6406,28.9375 180,29.0781 Q179.3594,29.2344 178.6563,29.2344 Q176.1563,29.2344 174.8281,27.5938 Q173.5156,25.9375 173.5156,22.8125 Q173.5156,19.6875 174.8281,18.0313 Q176.1563,16.375 178.6563,16.375 Q179.3594,16.375 180,16.5313 Q180.6563,16.6875 181.2188,16.9844 L181.2188,19.7031 Q180.5938,19.125 180,18.8594 Q179.4063,18.5781 178.7813,18.5781 Q177.4375,18.5781 176.75,19.6563 Q176.0625,20.7188 176.0625,22.8125 Q176.0625,24.9063 176.75,25.9844 Q177.4375,27.0469 178.7813,27.0469 Q179.4063,27.0469 180,26.7813 Q180.5938,26.5 181.2188,25.9219 L181.2188,28.6406 Z " fill="#000000"/><text fill="#000000" font-family="sans-serif" font-size="12" lengthAdjust="spacing" textLength="45" x="198.75" y="27.1543">Revista</text><line style="stroke:#A80036;stroke-width:1.5;" x1="8" x2="402" y1="39" y2="39"/><rect fill="none" height="6" style="stroke:#C82930;stroke-width:1.0;" width="6" x="15" y="47"/><text fill="#000000" font-family="sans-serif" font-size="11" lengthAdjust="spacing" textLength="82" x="27" y="53.2104">nombre:String</text><rect fill="none" height="6" style="stroke:#C82930;stroke-width:1.0;" width="6" x="15" y="59.8047"/><text fill="#000000" font-family="sans-serif" font-size="11" lengthAdjust="spacing" textLength="75" x="27" y="66.0151">codigo:String</text><rect fill="none" height="6" style="stroke:#C82930;stroke-width:1.0;" width="6" x="15" y="72.6094"/><text fill="#000000" font-family="sans-serif" font-size="11" lengthAdjust="spacing" textLength="107" x="27" y="78.8198">periodicidad:String</text><rect fill="none" height="6" style="stroke:#C82930;stroke-width:1.0;" width="6" x="15" y="85.4141"/><text fill="#000000" font-family="sans-serif" font-size="11" lengthAdjust="spacing" textLength="84" x="27" y="91.6245">edicion:Edicion</text><line style="stroke:#A80036;stroke-width:1.5;" x1="8" x2="402" y1="98.2188" y2="98.2188"/><ellipse cx="18" cy="109.2188" fill="#84BE84" rx="3" ry="3" style="stroke:#038048;stroke-width:1.0;"/><text fill="#000000" font-family="sans-serif" font-size="11" lengthAdjust="spacing" textLength="370" x="27" y="112.4292">Revista(nombre:String,codigo:String, periodicidad:String):Revista</text><!--MD5=[f43153a41efbbd7e1523791aedc3d353]
class Edicion--><rect codeLine="9" fill="#FEFECE" filter="url(#f1m7ioos3q9yb)" height="112.0234" id="Edicion" style="stroke:#A80036;stroke-width:1.5;" width="415" x="438.5" y="7"/><ellipse cx="619.25" cy="23" fill="#ADD1B2" rx="11" ry="11" style="stroke:#A80036;stroke-width:1.0;"/><path d="M622.2188,28.6406 Q621.6406,28.9375 621,29.0781 Q620.3594,29.2344 619.6563,29.2344 Q617.1563,29.2344 615.8281,27.5938 Q614.5156,25.9375 614.5156,22.8125 Q614.5156,19.6875 615.8281,18.0313 Q617.1563,16.375 619.6563,16.375 Q620.3594,16.375 621,16.5313 Q621.6563,16.6875 622.2188,16.9844 L622.2188,19.7031 Q621.5938,19.125 621,18.8594 Q620.4063,18.5781 619.7813,18.5781 Q618.4375,18.5781 617.75,19.6563 Q617.0625,20.7188 617.0625,22.8125 Q617.0625,24.9063 617.75,25.9844 Q618.4375,27.0469 619.7813,27.0469 Q620.4063,27.0469 621,26.7813 Q621.5938,26.5 622.2188,25.9219 L622.2188,28.6406 Z " fill="#000000"/><text fill="#000000" font-family="sans-serif" font-size="12" lengthAdjust="spacing" textLength="45" x="639.75" y="27.1543">Edicion</text><line style="stroke:#A80036;stroke-width:1.5;" x1="439.5" x2="852.5" y1="39" y2="39"/><rect fill="none" height="6" style="stroke:#C82930;stroke-width:1.0;" width="6" x="446.5" y="47"/><text fill="#000000" font-family="sans-serif" font-size="11" lengthAdjust="spacing" textLength="109" x="458.5" y="53.2104">fechaEdicion:String</text><rect fill="none" height="6" style="stroke:#C82930;stroke-width:1.0;" width="6" x="446.5" y="59.8047"/><text fill="#000000" font-family="sans-serif" font-size="11" lengthAdjust="spacing" textLength="78" x="458.5" y="66.0151">precio:Double</text><rect fill="none" height="6" style="stroke:#C82930;stroke-width:1.0;" width="6" x="446.5" y="72.6094"/><text fill="#000000" font-family="sans-serif" font-size="11" lengthAdjust="spacing" textLength="102" x="458.5" y="78.8198">numeroEdicion:int</text><rect fill="none" height="6" style="stroke:#C82930;stroke-width:1.0;" width="6" x="446.5" y="85.4141"/><text fill="#000000" font-family="sans-serif" font-size="11" lengthAdjust="spacing" textLength="123" x="458.5" y="91.6245">articulo:list&lt;articulo&gt;</text><line style="stroke:#A80036;stroke-width:1.5;" x1="439.5" x2="852.5" y1="98.2188" y2="98.2188"/><ellipse cx="449.5" cy="109.2188" fill="#84BE84" rx="3" ry="3" style="stroke:#038048;stroke-width:1.0;"/><text fill="#000000" font-family="sans-serif" font-size="11" lengthAdjust="spacing" textLength="389" x="458.5" y="112.4292">Edicion(fechaEdicion:String,precio:Double,numeroEdicion:int):Edicion</text><!--MD5=[60dbf6945f26d51d7ef11e92d44c812f]
class Articulo--><rect codeLine="17" fill="#FEFECE" filter="url(#f1m7ioos3q9yb)" height="112.0234" id="Articulo" style="stroke:#A80036;stroke-width:1.5;" width="137" x="136.5" y="179"/><ellipse cx="177.6" cy="195" fill="#ADD1B2" rx="11" ry="11" style="stroke:#A80036;stroke-width:1.0;"/><path d="M180.5688,200.6406 Q179.9906,200.9375 179.35,201.0781 Q178.7094,201.2344 178.0063,201.2344 Q175.5063,201.2344 174.1781,199.5938 Q172.8656,197.9375 172.8656,194.8125 Q172.8656,191.6875 174.1781,190.0313 Q175.5063,188.375 178.0063,188.375 Q178.7094,188.375 179.35,188.5313 Q180.0063,188.6875 180.5688,188.9844 L180.5688,191.7031 Q179.9438,191.125 179.35,190.8594 Q178.7563,190.5781 178.1313,190.5781 Q176.7875,190.5781 176.1,191.6563 Q175.4125,192.7188 175.4125,194.8125 Q175.4125,196.9063 176.1,197.9844 Q176.7875,199.0469 178.1313,199.0469 Q178.7563,199.0469 179.35,198.7813 Q179.9438,198.5 180.5688,197.9219 L180.5688,200.6406 Z " fill="#000000"/><text fill="#000000" font-family="sans-serif" font-size="12" lengthAdjust="spacing" textLength="47" x="197.4" y="199.1543">Articulo</text><line style="stroke:#A80036;stroke-width:1.5;" x1="137.5" x2="272.5" y1="211" y2="211"/><rect fill="none" height="6" style="stroke:#C82930;stroke-width:1.0;" width="6" x="144.5" y="219"/><text fill="#000000" font-family="sans-serif" font-size="11" lengthAdjust="spacing" textLength="66" x="156.5" y="225.2104">titulo:String</text><rect fill="none" height="6" style="stroke:#C82930;stroke-width:1.0;" width="6" x="144.5" y="231.8047"/><text fill="#000000" font-family="sans-serif" font-size="11" lengthAdjust="spacing" textLength="67" x="156.5" y="238.0151">tema:String</text><rect fill="none" height="6" style="stroke:#C82930;stroke-width:1.0;" width="6" x="144.5" y="244.6094"/><text fill="#000000" font-family="sans-serif" font-size="11" lengthAdjust="spacing" textLength="68" x="156.5" y="250.8198">autor:String</text><rect fill="none" height="6" style="stroke:#C82930;stroke-width:1.0;" width="6" x="144.5" y="257.4141"/><text fill="#000000" font-family="sans-serif" font-size="11" lengthAdjust="spacing" textLength="111" x="156.5" y="263.6245">fechaArticulo:String</text><line style="stroke:#A80036;stroke-width:1.5;" x1="137.5" x2="272.5" y1="270.2188" y2="270.2188"/><ellipse cx="147.5" cy="281.2188" fill="#84BE84" rx="3" ry="3" style="stroke:#038048;stroke-width:1.0;"/><text fill="#000000" font-family="sans-serif" font-size="11" lengthAdjust="spacing" textLength="50" x="156.5" y="284.4292">Articulo()</text><!--MD5=[435b58cb8c023e416d54a46400e73f2c]
link Revista to Edicion--><!--MD5=[fa74bd5232bac074aa4cd5f5fd36798e]
link Revista to Articulo--><!--MD5=[30e374a68d6017751623ddc05a7a1f6e]
@startuml
class Revista{
-  nombre:String
-  codigo:String
-  periodicidad:String
-  edicion:Edicion
+  Revista(nombre:String,codigo:String, periodicidad:String):Revista
  }

class Edicion{
-  fechaEdicion:String
-  precio:Double
- numeroEdicion:int
- articulo:list<articulo>
+ Edicion(fechaEdicion:String,precio:Double,numeroEdicion:int):Edicion
}

class Articulo{
- titulo:String
- tema:String
- autor:String
- fechaArticulo:String
+ Articulo()
}
@enduml

PlantUML version 1.2021.7(Sun May 23 12:40:07 UTC 2021)
(GPL source distribution)
Java Runtime: OpenJDK Runtime Environment
JVM: OpenJDK 64-Bit Server VM
Default Encoding: UTF-8
Language: en
Country: US
--></g></svg>